# AST/ASF file generated using VICON BodyLanguage
# -----------------------------------------------
:version 1.10
:name VICON
:units
  mass 1.0
  length 0.45
  angle deg
:documentation
   .ast/.asf automatically generated from VICON data using
   VICON BodyBuilder and BodyLanguage model FoxedUp or BRILLIANT.MOD
:root
   order TX TY TZ RX RY RZ
   axis XYZ
   position 0 0 0  
   orientation 0 0 0 
:bonedata
  begin
     id 1 
     name lhipjoint
     direction 0.522423 -0.726805 0.445902 
     length 2.25074 
     axis 0 0 0  XYZ
  end
  begin
     id 2 
     name lfemur
     direction 0.34202 -0.939693 0  
     length 6.54609  
     axis 0 0 20  XYZ
    dof rx ry rz
    limits (-160.0 20.0)
           (-70.0 70.0)
           (-60.0 70.0)
  end
  begin
     id 3 
     name ltibia
     direction 0.34202 -0.939693 0   
     length 7.7528   
     axis 0 0 20   XYZ
    dof rx
    limits (-10.0 170.0)
  end
  begin
     id 4 
     name lfoot
     direction 0.143696 -0.394801 0.90746   
     length 1.73269   
     axis -90 7.62852e-016 20   XYZ
    dof rx rz
    limits (-45.0 90.0)
           (-70.0 20.0)
  end
  begin
     id 5 
     name ltoes
     direction 1.53633e-011 -4.21912e-011 1   
     length 0.858383   
     axis -90 7.62852e-016 20   XYZ
    dof rx
    limits (-90.0 20.0)
  end
  begin
     id 6 
     name rhipjoint
     direction -0.515943 -0.73016 0.447961   
     length 2.2404  
     axis 0 0 0  XYZ 
  end
  begin
     id 7 
     name rfemur
     direction -0.34202 -0.939693 0   
     length 6.84377   
     axis 0 0 -20   XYZ
    dof rx ry rz
    limits (-160.0 20.0)
           (-70.0 70.0)
           (-70.0 60.0)
  end
  begin
     id 8 
     name rtibia
     direction -0.34202 -0.939693 0   
     length 7.57596   
     axis 0 0 -20   XYZ
    dof rx
    limits (-10.0 170.0)
 end
 begin
     id 9 
     name rfoot
     direction -0.0999372 -0.274575 0.956358   
     length 1.78783  
     axis -90 -7.62852e-016 -20   XYZ
    dof rx rz
    limits (-45.0 90.0)
           (-20.0 70.0)
  end
  begin
     id 10 
     name rtoes
     direction -1.53535e-011 -4.21895e-011 1   
     length 0.898614   
     axis -90 -7.62852e-016 -20   XYZ
    dof rx
    limits (-90.0 20.0)
  end
  begin
     id 11 
     name lowerback
     direction -0.011775 0.996164 -0.0867116   
     length 1.91499   
     axis 0 0 0   XYZ
    dof rx ry rz
    limits (-20.0 45.0)
           (-30.0 30.0)
           (-30.0 30.0)
  end
  begin
     id 12 
     name upperback
     direction -0.00189771 0.999673 -0.0254833   
     length 1.92213   
     axis 0 0 0   XYZ
    dof rx ry rz
    limits (-20.0 45.0)
           (-30.0 30.0)
           (-30.0 30.0)
  end
  begin
     id 13 
     name thorax
     direction 0.00335995 0.999878 0.0152401   
     length 1.93138   
     axis 0 0 0   XYZ
    dof rx ry rz
    limits (-20.0 45.0)
           (-30.0 30.0)
           (-30.0 30.0)
  end
  begin
     id 14 
     name lowerneck
     direction 0.00233191 0.998509 0.0545404   
     length 1.59408   
     axis 0 0 0   XYZ
    dof rx ry rz
    limits (-20.0 45.0)
           (-30.0 30.0)
           (-30.0 30.0)
  end
  begin
     id 15 
     name upperneck
     direction 0.07881 0.9956 -0.0506934   
     length 1.59344   
     axis 0 0 0   XYZ
    dof rx ry rz
    limits (-20.0 45.0)
           (-30.0 30.0)
           (-30.0 30.0)
  end
  begin
     id 16
     name head
     direction 0.0261681 0.999378 -0.0236299  
     length 1.60935  
     axis 0 0 0   XYZ
    dof rx ry rz
    limits (-20.0 45.0)
           (-30.0 30.0)
           (-30.0 30.0)
  end
  begin
     id 17 
     name lclavicle
     direction 0.96643 0.252035 0.0499195  
     length 3.82153  
     axis 0 0 0   XYZ
    dof ry rz
    limits (-20.0 10.0)
           (0.0 20.0)
  end
  begin
     id 18 
     name lhumerus
     direction 1 -4.48967e-011 -2.01614e-018   
     length 4.87796   
     axis 180 -30 -90   XYZ
    dof rx ry rz
    limits (-60.0 90.0)
           (-90.0 90.0)
           (-90.0 90.0)
  end
  begin
     id 19
     name lradius
     direction 1 -4.48958e-011 3.1409e-027   
     length 3.23169   
     axis 180 -30 -90   XYZ
    dof rx
    limits (-10.0 170.0)
  end
  begin
     id 20
     name lwrist
     direction 1 -4.48924e-011 1.0365e-027   
     length 1.61584   
     axis -2.56395e-016 90 90   XYZ
    dof ry
    limits (-180.0 0.0)
 end
  begin
     id 21 
     name lhand
     direction 1 -4.49055e-011 2.09488e-027   
     length 0.731324   
     axis -1.32723e-015 90 90   XYZ
    dof rx rz
    limits (-90.0 90.0)
           (-45.0 45.0)
  end
  begin
     id 22 
     name lfingers
     direction 1 -4.48935e-011 4.14981e-027   
     length 0.589612   
     axis -2.6545e-015 90 90   XYZ
    dof rx
    limits (0.0 90.0)
  end
  begin
     id 23
     name lthumb
     direction 0.707107 -6.35097e-011 0.707107   
     length 0.846569   
     axis -90 45 5.05613e-014   XYZ
    dof rx rz
    limits (-45.0 45.0)
           (-45.0 45.0)
  end
  begin
     id 24 
     name rclavicle
     direction -0.979337 0.201016 0.0221522   
     length 3.73827  
     axis 0 0 0   XYZ 
    dof ry rz
    limits (-10.0 20.0)
           (-20.0 0.0)
  end
  begin
     id 25 
     name rhumerus
     direction -1 -4.48971e-011 1.65907e-027  
     length 4.9143   
     axis 180 30 90   XYZ
    dof rx ry rz
    limits (-90.0 60.0)
           (-90.0 90.0)
           (-90.0 90.0)
  end
  begin
     id 26 
     name rradius
     direction -1 -4.4894e-011 2.17871e-028   
     length 3.29093   
     axis 180 30 90   XYZ
    dof rx
    limits (-10.0 170.0)
  end
  begin
     id 27 
     name rwrist
     direction -1 -4.48971e-011 1.04038e-027   
     length 1.64546   
     axis -2.56395e-016 -90 -90   XYZ
    dof ry
    limits (-180.0 0.0)
  end
  begin
     id 28
     name rhand
     direction -1 -4.49017e-011 2.08843e-027   
     length 0.54512   
     axis -1.32723e-015 -90 -90   XYZ
    dof rx rz
    limits (-90.0 90.0)
           (-45.0 45.0)
  end
  begin
     id 29
     name rfingers
     direction -1 -4.48918e-011 4.1439e-027   
     length 0.43949   
     axis -2.6545e-015 -90 -90   XYZ
    dof rx
    limits (0.0 90.0)
  end
  begin
     id 30
     name rthumb
     direction -0.707107 -6.35065e-011 0.707107   
     length 0.631022   
     axis -90 -45 -5.05613e-014   XYZ
    dof rx rz
    limits (-45.0 45.0)
           (-45.0 45.0)
  end
:hierarchy
  begin
    root lhipjoint rhipjoint lowerback
    lhipjoint lfemur
    lfemur ltibia
    ltibia lfoot
    lfoot ltoes
    rhipjoint rfemur
    rfemur rtibia
    rtibia rfoot
    rfoot rtoes
    lowerback upperback
    upperback thorax
    thorax lowerneck lclavicle rclavicle
    lowerneck upperneck
    upperneck head
    lclavicle lhumerus
    lhumerus lradius
    lradius lwrist
    lwrist lhand lthumb
    lhand lfingers
    rclavicle rhumerus
    rhumerus rradius
    rradius rwrist
    rwrist rhand rthumb
    rhand rfingers
  end

#!OML:ASF H:\BreakDance\Project 1\Capture day 1\Session 1\Male.ASF
:FULLY-SPECIFIED
:DEGREES
255
root 11.6882 16.9728 3.0334 13.9829 -33.6106 0.103282
lowerback 1.72589 -3.06259 -3.43134
upperback 2.85992 -4.09217 -0.789451
thorax 2.15556 -2.11071 1.09053
lowerneck 4.33879 -7.48264 -2.8416
upperneck -12.0456 -9.45199 9.12566
head -3.70406 -5.08802 3.62464
rclavicle 5.36719e-014 -6.36111e-015
rhumerus -11.3023 20.0215 -94.6419
rradius 47.3906
rwrist -2.87848
rhand -29.385 -24.6168
rfingers 7.12502
rthumb -2.72351 -54.5792
lclavicle 5.36719e-014 -6.36111e-015
lhumerus 9.31319 -37.0953 78.3298
lradius 32.064
lwrist 11.3552
lhand -23.2391 -22.63
lfingers 7.12502
lthumb 3.21219 7.32556
rfemur -46.0227 10.2249 17.0831
rtibia 50.1104
rfoot -1.63493 15.9492
rtoes 4.42503
lfemur -35.7524 1.60811 -22.7154
ltibia 40.8821
lfoot -24.2363 3.21126
ltoes -36.7981
256
root 11.736 16.9738 3.01529 13.2696 -31.0014 0.960373
lowerback 1.72926 -3.35305 -3.92043
upperback 2.92118 -4.47946 -0.710262
thorax 2.2809 -2.31746 1.43437
lowerneck 4.15655 -7.88023 -3.3917
upperneck -11.3635 -10.0538 9.15372
head -3.40018 -5.3478 3.69604
rclavicle 3.61788e-014 8.74653e-015
rhumerus -10.7546 21.5542 -93.5191
rradius 49.2468
rwrist -3.26461
rhand -29.3615 -24.1854
rfingers 7.12502
rthumb -2.70083 -54.148
lclavicle 3.61788e-014 8.74653e-015
lhumerus 11.1712 -39.3493 77.3974
lradius 33.698
lwrist 12.5799
lhand -23.656 -22.8636
lfingers 7.12502
lthumb 2.80956 7.09759
rfemur -45.9641 10.9369 16.8235
rtibia 50.0195
rfoot -0.347806 16.2639
rtoes 7.74875
lfemur -34.0727 1.38076 -22.996
ltibia 40.9647
lfoot -24.4751 6.19059
ltoes -36.409
257
root 11.779 16.9622 2.99766 12.5609 -28.3214 1.76286
lowerback 1.75832 -3.66146 -4.43632
upperback 2.96702 -4.89258 -0.604777
thorax 2.39043 -2.53832 1.81963
lowerneck 3.91198 -8.26224 -4.01749
upperneck -10.5722 -10.6403 9.16536
head -3.04916 -5.59692 3.76164
rclavicle -5.60573e-014 -1.74931e-014
rhumerus -10.1496 22.8811 -92.2704
rradius 51.0087
rwrist -3.5241
rhand -29.3279 -23.6487
rfingers 7.12502
rthumb -2.66843 -53.6117
lclavicle -5.60573e-014 -1.74931e-014
lhumerus 13.11 -41.4652 76.3701
lradius 35.3034
lwrist 13.7722
lhand -24.1244 -23.1889
lfingers 7.12502
lthumb 2.35719 6.7778
rfemur -45.7928 11.5391 16.5619
rtibia 49.8978
rfoot 0.595156 16.258
rtoes 8.76565
lfemur -32.2506 1.41897 -23.2088
ltibia 41.0606
lfoot -24.4991 8.63777
ltoes -35.7261
258
root 11.8209 16.9366 2.98158 11.9169 -25.6358 2.49133
lowerback 1.78907 -3.95915 -4.88516
upperback 2.97195 -5.29241 -0.505986
thorax 2.45786 -2.75007 2.16146
lowerneck 3.6869 -8.63644 -4.6988
upperneck -9.45964 -11.2603 8.89702
head -2.90331 -5.83028 4.14005
rclavicle -2.80286e-014 -3.97569e-015
rhumerus -9.51976 23.9551 -90.9413
rradius 52.6925
rwrist -3.66845
rhand -29.2872 -23.0777
rfingers 7.12502
rthumb -2.62911 -53.0412
lclavicle -2.80286e-014 -3.97569e-015
lhumerus 15.1389 -43.497 75.2063
lradius 36.8957
lwrist 14.9551
lhand -24.6266 -23.5631
lfingers 7.12502
lthumb 1.87224 6.40841
rfemur -45.599 11.8959 16.3555
rtibia 49.763
rfoot 1.32178 16.243
rtoes 7.81672
lfemur -30.4041 1.65898 -23.3059
ltibia 41.1983
lfoot -24.4366 10.451
ltoes -34.5256
259
root 11.8614 16.8971 2.96784 11.3175 -22.9182 3.1469
lowerback 1.81992 -4.24318 -5.25023
upperback 2.94954 -5.6745 -0.430947
thorax 2.49209 -2.94979 2.43328
lowerneck 3.45037 -9.03264 -5.29108
upperneck -8.61489 -11.8533 8.87489
head -2.49127 -6.0941 4.17067
rclavicle 5.82439e-014 2.06736e-014
rhumerus -8.89958 24.7437 -89.5722
rradius 54.324
rwrist -3.72616
rhand -29.213 -22.5243
rfingers 7.12502
rthumb -2.55746 -52.4887
lclavicle 5.82439e-014 2.06736e-014
lhumerus 17.2983 -45.4771 73.8631
lradius 38.466
lwrist 16.0932
lhand -25.1527 -23.944
lfingers 7.12502
lthumb 1.36404 6.03141
rfemur -45.3653 11.9506 16.2445
rtibia 49.6355
rfoot 1.91467 16.3406
rtoes 6.1032
lfemur -28.554 2.02585 -23.2395
ltibia 41.3979
lfoot -24.4057 11.4253
ltoes -32.931
260
root 11.8978 16.8462 2.95644 10.7185 -20.1601 3.73763
lowerback 1.85788 -4.50506 -5.58205
upperback 2.92194 -6.02763 -0.3772
thorax 2.51424 -3.13373 2.66548
lowerneck 3.23458 -9.43759 -5.79231
upperneck -7.78609 -12.4497 8.81151
head -2.09788 -6.36496 4.17082
rclavicle 1.88845e-014 -1.15295e-014
rhumerus -8.31728 25.2546 -88.1629
rradius 55.9191
rwrist -3.71645
rhand -29.0178 -21.9754
rfingers 7.12502
rthumb -2.36886 -51.942
lclavicle 1.88845e-014 -1.15295e-014
lhumerus 19.6212 -47.4012 72.3411
lradius 39.9933
lwrist 17.1342
lhand -25.6686 -24.3106
lfingers 7.12502
lthumb 0.865858 5.66734
rfemur -45.0414 11.8345 16.1761
rtibia 49.5527
rfoot 2.41476 16.3592
rtoes 5.79808
lfemur -26.6757 2.44889 -22.9714
ltibia 41.662
lfoot -24.4073 11.759
ltoes -31.6692
261
root 11.9331 16.7848 2.9475 10.1511 -17.399 4.27554
lowerback 1.86317 -4.7411 -5.86296
upperback 2.88449 -6.34429 -0.346923
thorax 2.53706 -3.29778 2.84343
lowerneck 3.07114 -9.86102 -6.24328
upperneck -6.986 -13.0652 8.74538
head -1.72676 -6.65066 4.16377
rclavicle 2.98177e-016 -1.59028e-014
rhumerus -7.77484 25.5358 -86.6986
rradius 57.4751
rwrist -3.62885
rhand -28.8105 -21.416
rfingers 7.12502
rthumb -2.16869 -51.3848
lclavicle 2.98177e-016 -1.59028e-014
lhumerus 22.1217 -49.2237 70.6498
lradius 41.4722
lwrist 18.0397
lhand -26.1364 -24.6523
lfingers 7.12502
lthumb 0.413978 5.32705
rfemur -44.6771 11.5602 16.1071
rtibia 49.5613
rfoot 2.61724 16.1278
rtoes 7.3373
lfemur -24.8365 2.77271 -22.5078
ltibia 41.9914
lfoot -24.4234 11.7275
ltoes -31.2048
262
root 11.966 16.7135 2.94056 9.60856 -14.6653 4.76706
lowerback 1.81679 -4.93292 -6.09553
upperback 2.85239 -6.59742 -0.371739
thorax 2.57886 -3.42877 2.93435
lowerneck 2.95794 -10.3098 -6.57176
upperneck -6.24193 -13.7062 8.66357
head -1.39113 -6.95528 4.13387
rclavicle 3.71727e-014 2.26615e-014
rhumerus -7.28295 25.563 -85.235
rradius 58.9691
rwrist -3.49019
rhand -28.6259 -20.8715
rfingers 7.12502
rthumb -1.99043 -50.8419
lclavicle 3.71727e-014 2.26615e-014
lhumerus 24.8424 -50.9785 68.7101
lradius 42.9234
lwrist 18.8098
lhand -26.5357 -24.9654
lfingers 7.12502
lthumb 0.0283463 5.01435
rfemur -44.261 11.2212 16.0048
rtibia 49.7156
rfoot 2.19775 15.3675
rtoes 9.66026
lfemur -23.0481 2.94883 -21.856
ltibia 42.3831
lfoot -24.4283 11.4686
ltoes -31.6287
263
root 11.9957 16.632 2.93481 9.09087 -11.9975 5.21331
lowerback 1.70262 -5.05136 -6.29521
upperback 2.84077 -6.74591 -0.461632
thorax 2.65885 -3.50723 2.93535
lowerneck 2.90421 -10.8029 -6.73786
upperneck -5.5969 -14.3975 8.5572
head -1.10868 -7.2908 4.07401
rclavicle 7.95139e-016 -1.59028e-015
rhumerus -6.84912 25.3063 -83.7867
rradius 60.3839
rwrist -3.33802
rhand -28.5929 -20.3641
rfingers 7.12502
rthumb -1.95855 -50.3348
lclavicle 7.95139e-016 -1.59028e-015
lhumerus 27.8209 -52.6668 66.5184
lradius 44.3469
lwrist 19.4103
lhand -26.8538 -25.2412
lfingers 7.12502
lthumb -0.278843 4.73841
rfemur -43.7959 10.8685 15.855
rtibia 50.057
rfoot 1.05794 13.965
rtoes 11.671
lfemur -21.3342 3.00736 -21.0356
ltibia 42.8413
lfoot -24.3907 11.0828
ltoes -32.6271
264
root 12.0228 16.5414 2.93 8.60924 -9.36503 5.60659
lowerback 1.52658 -5.12288 -6.44231
upperback 2.84191 -6.82532 -0.597643
thorax 2.76795 -3.55034 2.85547
lowerneck 2.89735 -11.324 -6.79623
upperneck -5.02828 -15.1201 8.44917
head -0.866425 -7.64601 3.99988
rclavicle -5.60076e-014 5.96354e-016
rhumerus -6.48911 24.8322 -82.3672
rradius 61.7088
rwrist -3.20301
rhand -28.7638 -19.9127
rfingers 7.12502
rthumb -2.12363 -49.8819
lclavicle -5.60076e-014 5.96354e-016
lhumerus 30.9522 -54.1876 64.2059
lradius 45.7233
lwrist 19.7694
lhand -27.0728 -25.4811
lfingers 7.12502
lthumb -0.490395 4.49806
rfemur -43.2959 10.4702 15.6646
rtibia 50.6008
rfoot -0.732822 11.9681
rtoes 12.2886
lfemur -19.7269 2.93867 -20.0506
ltibia 43.3613
lfoot -24.3002 10.6504
ltoes -33.8283
265
root 12.048 16.4428 2.92582 8.1527 -6.79751 5.92619
lowerback 1.33877 -5.17554 -6.54123
upperback 2.83891 -6.8781 -0.731572
thorax 2.87095 -3.57884 2.75129
lowerneck 2.93775 -11.8379 -6.89042
upperneck -4.52336 -15.8338 8.37043
head -0.64983 -7.99829 3.94631
rclavicle -2.00276e-014 -5.76476e-015
rhumerus -6.19383 24.2924 -80.9702
rradius 62.9274
rwrist -3.14131
rhand -29.1448 -19.5244
rfingers 7.12502
rthumb -2.49155 -49.4896
lclavicle -2.00276e-014 -5.76476e-015
lhumerus 34.0021 -55.401 62.0219
lradius 47.0343
lwrist 19.8394
lhand -27.1727 -25.7063
lfingers 7.12502
lthumb -0.586858 4.27262
rfemur -42.7738 10.0011 15.4628
rtibia 51.3231
rfoot -2.89929 9.63877
rtoes 11.1768
lfemur -18.2183 2.78242 -18.8961
ltibia 43.9254
lfoot -24.1679 10.2117
ltoes -34.8319
266
root 12.0726 16.3392 2.92247 7.70652 -4.2842 6.1673
lowerback 1.19361 -5.25274 -6.60039
upperback 2.8122 -6.96828 -0.818667
thorax 2.92995 -3.62417 2.67748
lowerneck 3.04064 -12.3024 -7.15873
upperneck -4.07532 -16.4886 8.36049
head -0.446485 -8.32184 3.95085
rclavicle 8.15514e-014 1.39149e-015
rhumerus -5.94117 23.8236 -79.5818
rradius 64.0281
rwrist -3.17184
rhand -29.7118 -19.1975
rfingers 7.12502
rthumb -3.03916 -49.1556
lclavicle 8.15514e-014 1.39149e-015
lhumerus 36.6717 -56.2053 60.2703
lradius 48.2635
lwrist 19.5953
lhand -27.1544 -25.9417
lfingers 7.12502
lthumb -0.569229 4.03724
rfemur -42.2393 9.43471 15.2473
rtibia 52.1754
rfoot -5.16611 7.34825
rtoes 8.34032
lfemur -16.7912 2.54883 -17.5815
ltibia 44.4924
lfoot -23.9836 9.79124
ltoes -35.4483
267
root 12.0977 16.2343 2.92034 7.26215 -1.83598 6.33656
lowerback 1.11928 -5.37803 -6.62169
upperback 2.75185 -7.13067 -0.845791
thorax 2.92408 -3.70323 2.65061
lowerneck 3.2008 -12.6914 -7.62347
upperneck -3.68528 -17.0516 8.41541
head -0.253926 -8.60026 4.01627
rclavicle 4.83295e-014 -1.89839e-014
rhumerus -5.71022 23.5022 -78.2053
rradius 65.0097
rwrist -3.27737
rhand -30.404 -18.8968
rfingers 7.12502
rthumb -3.70762 -48.8443
lclavicle 4.83295e-014 -1.89839e-014
lhumerus 38.7404 -56.5744 59.1611
lradius 49.3925
lwrist 19.0305
lhand -27.0423 -26.1924
lfingers 7.12502
lthumb -0.460947 3.78689
rfemur -41.7156 8.75315 15.0173
rtibia 53.094
rfoot -7.336 5.42575
rtoes 3.53216
lfemur -15.4273 2.26722 -16.1328
ltibia 45.0149
lfoot -23.7458 9.40801
ltoes -35.7158
268
root 12.1236 16.1332 2.91902 6.82274 0.506464 6.45004
lowerback 1.12057 -5.54277 -6.60334
upperback 2.65699 -7.35417 -0.826525
thorax 2.84678 -3.81013 2.65729
lowerneck 3.3853 -12.999 -8.19379
upperneck -3.36984 -17.5107 8.47599
head -0.0850452 -8.82718 4.10795
rclavicle 4.83047e-014 2.87244e-014
rhumerus -5.4788 23.3173 -76.8565
rradius 65.8586
rwrist -3.40073
rhand -31.0795 -18.5489
rfingers 7.12502
rthumb -4.35995 -48.484
lclavicle 4.83047e-014 2.87244e-014
lhumerus 40.1314 -56.5599 58.7328
lradius 50.4404
lwrist 18.1895
lhand -26.8762 -26.4575
lfingers 7.12502
lthumb -0.300472 3.52204
rfemur -41.2251 8.00555 14.7393
rtibia 54.0343
rfoot -9.24368 4.01909
rtoes -1.88679
lfemur -14.1145 1.9939 -14.5922
ltibia 45.4486
lfoot -23.4508 9.08153
ltoes -35.7997
269
root 12.1514 16.0383 2.91728 6.4001 2.70404 6.51022
lowerback 1.1981 -5.73363 -6.57491
upperback 2.53043 -7.6211 -0.739544
thorax 2.70614 -3.93739 2.73652
lowerneck 3.59594 -13.2263 -8.84403
upperneck -3.17749 -17.8656 8.52323
head 0.0394154 -9.00217 4.21938
rclavicle 4.95347e-014 6.80837e-015
rhumerus -5.19536 23.2641 -75.4832
rradius 66.554
rwrist -3.48153
rhand -31.783 -18.1505
rfingers 7.12502
rthumb -5.03918 -48.0706
lclavicle 4.95347e-014 6.80837e-015
lhumerus 40.8609 -56.1989 58.9689
lradius 51.4326
lwrist 17.1447
lhand -26.7095 -26.7507
lfingers 7.12502
lthumb -0.139516 3.22902
rfemur -40.7955 7.18189 14.4434
rtibia 54.9687
rfoot -10.8589 3.05797
rtoes -7.31659
lfemur -12.8638 1.75541 -12.9922
ltibia 45.7802
lfoot -23.1046 8.86826
ltoes -35.8404
